<?xml version="1.0" encoding="UTF-8" standalone="no"?>
<svg
   xmlns:dc="http://purl.org/dc/elements/1.1/"
   xmlns:cc="http://creativecommons.org/ns#"
   xmlns:rdf="http://www.w3.org/1999/02/22-rdf-syntax-ns#"
   xmlns:svg="http://www.w3.org/2000/svg"
   xmlns="http://www.w3.org/2000/svg"
   xmlns:sodipodi="http://sodipodi.sourceforge.net/DTD/sodipodi-0.dtd"
   xmlns:inkscape="http://www.inkscape.org/namespaces/inkscape"
   version="1.1"
   x="0px"
   y="0px"
   viewBox="-255 347 100 100"
   enable-background="new -255 347 100 100"
   xml:space="preserve"
   id="svg2"
   inkscape:version="0.91 r13725"
   sodipodi:docname="mug.svg"><metadata
     id="metadata10"><rdf:RDF><cc:Work
         rdf:about=""><dc:format>image/svg+xml</dc:format><dc:type
           rdf:resource="http://purl.org/dc/dcmitype/StillImage" /></cc:Work></rdf:RDF></metadata><defs
     id="defs8" /><sodipodi:namedview
     pagecolor="#ffffff"
     bordercolor="#666666"
     borderopacity="1"
     objecttolerance="10"
     gridtolerance="10"
     guidetolerance="10"
     inkscape:pageopacity="0"
     inkscape:pageshadow="2"
     inkscape:window-width="838"
     inkscape:window-height="978"
     id="namedview6"
     showgrid="false"
     inkscape:zoom="2.36"
     inkscape:cx="-12.5"
     inkscape:cy="50.37889"
     inkscape:window-x="-7"
     inkscape:window-y="0"
     inkscape:window-maximized="0"
     inkscape:current-layer="svg2" /><path
     fill-rule="evenodd"
     clip-rule="evenodd"
     d="M-166.3,414.5c-6.9,18.4-21,12-23,9.7c-3.9,6-8.8,10.4-14.8,10.4h-15.7  c-17.1,0-25.6-42.7-25.6-42.7c0-2.8,2.8-2.8,2.8-2.8h62.6c0,0,2.8,0,2.8,2.8c0,0-0.1,0.6-0.4,1.7  C-173.8,393.4-162.3,398.5-166.3,414.5z M-178.9,399.2c-1.5,5.5-4,13.1-7.5,19.9c1.3,2.3,9.9,6.1,14.6-6.3  C-168.9,400.9-176.8,399-178.9,399.2z M-199.7,379.4c-4,2.9-0.6,5.3-0.6,5.3c-4,0-5.2-5.3-2.3-6.4c2.9-1.2,1.7-3.5,1.7-3.5  C-196.2,377.1-199.7,379.4-199.7,379.4z M-206.3,374.9c-7,5.4-1,9.8-1,9.8c-7,0-9-9.8-4-12c5-2.2,3-6.5,3-6.5  C-200.3,370.5-206.3,374.9-206.3,374.9z M-215.7,371.9c-10,7.1-1.4,12.8-1.4,12.8c-10,0-12.9-12.8-5.7-15.7c7.2-2.8,4.3-8.5,4.3-8.5  C-207.1,366.2-215.7,371.9-215.7,371.9z"
     id="path4"
     style="fill:#418997;fill-opacity:1" /></svg>