<?xml version="1.0" encoding="UTF-8" standalone="no"?>
<svg
   xmlns:dc="http://purl.org/dc/elements/1.1/"
   xmlns:cc="http://creativecommons.org/ns#"
   xmlns:rdf="http://www.w3.org/1999/02/22-rdf-syntax-ns#"
   xmlns:svg="http://www.w3.org/2000/svg"
   xmlns="http://www.w3.org/2000/svg"
   xmlns:sodipodi="http://sodipodi.sourceforge.net/DTD/sodipodi-0.dtd"
   xmlns:inkscape="http://www.inkscape.org/namespaces/inkscape"
   version="1.1"
   x="0px"
   y="0px"
   viewBox="-255 347 100 100"
   enable-background="new -255 347 100 100"
   xml:space="preserve"
   id="svg2"
   inkscape:version="0.91 r13725"
   sodipodi:docname="mug.svg"><metadata
     id="metadata10"><rdf:RDF><cc:Work
         rdf:about=""><dc:format>image/svg+xml</dc:format><dc:type
           rdf:resource="http://purl.org/dc/dcmitype/StillImage" /><dc:title></dc:title></cc:Work></rdf:RDF></metadata><defs
     id="defs8" /><sodipodi:namedview
     pagecolor="#ffffff"
     bordercolor="#666666"
     borderopacity="1"
     objecttolerance="10"
     gridtolerance="10"
     guidetolerance="10"
     inkscape:pageopacity="0"
     inkscape:pageshadow="2"
     inkscape:window-width="1680"
     inkscape:window-height="987"
     id="namedview6"
     showgrid="false"
     inkscape:zoom="4.72"
     inkscape:cx="8.714291"
     inkscape:cy="48.882342"
     inkscape:window-x="-8"
     inkscape:window-y="-8"
     inkscape:window-maximized="1"
     inkscape:current-layer="g6582" /><g
     inkscape:groupmode="layer"
     id="layer1"
     inkscape:label="original"
     style="display:none"><path
       d="m -166.3,414.5 c -6.9,18.4 -21,12 -23,9.7 -3.9,6 -8.8,10.4 -14.8,10.4 l -15.7,0 c -17.1,0 -25.6,-42.7 -25.6,-42.7 0,-2.8 2.8,-2.8 2.8,-2.8 l 62.6,0 c 0,0 2.8,0 2.8,2.8 0,0 -0.1,0.6 -0.4,1.7 3.8,-0.2 15.3,4.9 11.3,20.9 z m -12.6,-15.3 c -1.5,5.5 -4,13.1 -7.5,19.9 1.3,2.3 9.9,6.1 14.6,-6.3 2.9,-11.9 -5,-13.8 -7.1,-13.6 z m -20.8,-19.8 c -4,2.9 -0.6,5.3 -0.6,5.3 -4,0 -5.2,-5.3 -2.3,-6.4 2.9,-1.2 1.7,-3.5 1.7,-3.5 4.7,2.3 1.2,4.6 1.2,4.6 z m -6.6,-4.5 c -7,5.4 -1,9.8 -1,9.8 -7,0 -9,-9.8 -4,-12 5,-2.2 3,-6.5 3,-6.5 8,4.3 2,8.7 2,8.7 z m -9.4,-3 c -10,7.1 -1.4,12.8 -1.4,12.8 -10,0 -12.9,-12.8 -5.7,-15.7 7.2,-2.8 4.3,-8.5 4.3,-8.5 11.4,5.7 2.8,11.4 2.8,11.4 z"
       id="path4"
       style="clip-rule:evenodd;fill:#418997;fill-opacity:1;fill-rule:evenodd"
       inkscape:connector-curvature="0" /></g><g
     inkscape:label="mug only"
     id="g6582"
     inkscape:groupmode="layer"
     style="display:inline"><path
       style="clip-rule:evenodd;fill:#f5c966;fill-opacity:1;fill-rule:evenodd"
       d="M 12.400391 42.099609 C 12.400391 42.099609 9.5996094 42.100391 9.5996094 44.900391 C 9.5996094 44.900391 18.099219 87.599609 35.199219 87.599609 L 50.900391 87.599609 C 56.900391 87.599609 61.799219 83.199219 65.699219 77.199219 C 67.699219 79.499219 81.799219 85.9 88.699219 67.5 C 92.699219 51.5 81.200391 46.399609 77.400391 46.599609 C 77.700391 45.499609 77.800781 44.900391 77.800781 44.900391 C 77.800781 42.100391 75 42.099609 75 42.099609 L 12.400391 42.099609 z M 76.558594 52.189453 C 79.14624 52.276978 85.917969 54.644531 83.199219 65.800781 C 78.499219 78.200781 69.899609 74.399609 68.599609 72.099609 C 72.099609 65.299609 74.599609 57.699219 76.099609 52.199219 C 76.230859 52.186719 76.386084 52.183618 76.558594 52.189453 z "
       transform="translate(-255,347)"
       id="path6584" /></g><g
     style="display:none"
     inkscape:label="steam only"
     id="g6591"
     inkscape:groupmode="layer"><path
       style="clip-rule:evenodd;fill:#418997;fill-opacity:1;fill-rule:evenodd"
       d="m 36.5,13.5 c 0,0 2.899219,5.7 -4.300781,8.5 -7.2,2.9 -4.298828,15.699219 5.701172,15.699219 0,0 -8.59961,-5.698828 1.40039,-12.798828 C 39.300781,24.900391 47.9,19.2 36.5,13.5 Z m 10.199219,5.699219 c 0,0 2,4.3 -3,6.5 -5,2.2 -3,12 4,12 0,0 -6,-4.398828 1,-9.798828 0,0 6,-4.401172 -2,-8.701172 z m 7.40039,8.601562 c 0,0 1.200782,2.3 -1.699218,3.5 -2.9,1.1 -1.701172,6.398438 2.298828,6.398438 0,0 -3.398438,-2.398828 0.601562,-5.298828 0,0 3.498828,-2.29961 -1.201172,-4.59961 z"
       transform="translate(-255,347)"
       id="path6593"
       inkscape:connector-curvature="0" /></g><g
     inkscape:groupmode="layer"
     id="layer2"
     inkscape:label="steam graph"><rect
       style="fill:#418997;fill-opacity:1"
       id="rect6607"
       width="3.1779661"
       height="18.432203"
       x="-221.19492"
       y="366.91525" /><rect
       style="fill:#418997;fill-opacity:1"
       id="rect6607-0"
       width="3.1779661"
       height="22.457628"
       x="-214.09744"
       y="362.88983" /><rect
       style="fill:#418997;fill-opacity:1"
       id="rect6607-0-2"
       width="3.1779661"
       height="8.6864405"
       x="-206.99998"
       y="376.66101" /><rect
       style="fill:#418997;fill-opacity:1"
       id="rect6607-0-9"
       width="3.1779661"
       height="11.652542"
       x="-199.90253"
       y="373.69492" /><rect
       style="fill:#418997;fill-opacity:1"
       id="rect6607-0-4"
       width="3.1779661"
       height="7.4152541"
       x="-228.29237"
       y="377.93219" /></g></svg>